<svg width="16" height="17" viewBox="0 0 16 17" fill="none" xmlns="http://www.w3.org/2000/svg">
<path d="M8.68066 13.9974C8.68066 14.4241 9.074 14.7507 9.48733 14.6574C10.234 14.4841 10.9407 14.1907 11.5673 13.7907C11.9207 13.5641 11.974 13.0574 11.674 12.7574C11.4607 12.5441 11.1207 12.4907 10.8673 12.6507C10.354 12.9774 9.78733 13.2174 9.18066 13.3507C8.88066 13.4174 8.68066 13.6907 8.68066 13.9974Z" fill="#E9E9E9"/>
<path d="M2.68685 8.15644C2.68685 5.62977 4.45352 3.50977 6.82018 2.9631C7.11352 2.89644 7.32018 2.6231 7.32018 2.3231C7.32018 1.89644 6.92018 1.56977 6.50685 1.66977C3.55352 2.34977 1.35352 4.99644 1.35352 8.15644C1.35352 11.3164 3.55352 13.9631 6.50685 14.6498C6.92018 14.7498 7.32018 14.4231 7.32018 13.9964C7.32018 13.6898 7.11352 13.4231 6.82018 13.3564C4.45352 12.8031 2.68685 10.6831 2.68685 8.15644Z" fill="#E9E9E9"/>
<path d="M13.8601 7.48405C14.2868 7.48405 14.6134 7.09072 14.5201 6.67739C14.3468 5.93072 14.0534 5.23072 13.6534 4.59739C13.4268 4.23739 12.9201 4.19072 12.6201 4.49072C12.4068 4.70405 12.3534 5.04405 12.5201 5.29739C12.8468 5.80405 13.0868 6.37072 13.2201 6.98405C13.2801 7.28405 13.5534 7.48405 13.8601 7.48405Z" fill="#E9E9E9"/>
<path d="M11.5673 2.5174C10.934 2.1174 10.234 1.82407 9.48733 1.65073C9.074 1.5574 8.68066 1.88407 8.68066 2.30407C8.68066 2.60407 8.88066 2.88407 9.174 2.94407C9.78067 3.0774 10.354 3.32407 10.8607 3.64407C11.1207 3.80407 11.454 3.7574 11.6673 3.5374C11.974 3.24407 11.9273 2.74407 11.5673 2.5174Z" fill="#E9E9E9"/>
<path d="M12.6138 11.8108C12.9138 12.1108 13.4205 12.0641 13.6472 11.7041C14.0472 11.0774 14.3405 10.3708 14.5138 9.62409C14.6072 9.21076 14.2805 8.81743 13.8605 8.81743C13.5605 8.81743 13.2805 9.01743 13.2205 9.31076C13.0872 9.91743 12.8405 10.4908 12.5205 10.9974C12.3472 11.2574 12.4005 11.5974 12.6138 11.8108Z" fill="#E9E9E9"/>
<path d="M10.6673 7.55076C10.6673 5.89076 9.40065 4.81743 8.00065 4.81743C6.60065 4.81743 5.33398 5.89076 5.33398 7.55076C5.33398 8.55743 6.06732 9.73743 7.54065 11.0841C7.80065 11.3241 8.19398 11.3241 8.46065 11.0841C9.93398 9.73077 10.6673 8.55743 10.6673 7.55076ZM8.00065 8.15076C7.60732 8.15076 7.28732 7.83076 7.28732 7.43743C7.28732 7.0441 7.60732 6.7241 8.00065 6.7241C8.39398 6.7241 8.71398 7.0441 8.71398 7.43743C8.71398 7.83076 8.39398 8.15076 8.00065 8.15076Z" fill="#E9E9E9"/>
</svg>
