<svg width="24" height="25" viewBox="0 0 24 25" fill="none" xmlns="http://www.w3.org/2000/svg">
<path d="M12 19.5C14.2091 19.5 16 17.7091 16 15.5C16 13.2909 14.2091 11.5 12 11.5C9.79086 11.5 8 13.2909 8 15.5C8 17.7091 9.79086 19.5 12 19.5Z" stroke="#797A7C" stroke-width="1.5" stroke-miterlimit="10" stroke-linecap="round" stroke-linejoin="round"/>
<path d="M10.4395 15.4995L11.0895 16.1495C11.2795 16.3395 11.5895 16.3495 11.7795 16.1595L13.5595 14.5195" stroke="#797A7C" stroke-width="1.5" stroke-linecap="round" stroke-linejoin="round"/>
<path d="M3.8108 17.06L4.0408 18.93C4.2608 20.89 4.9808 22.5 9.0008 22.5H15.0008C19.0208 22.5 19.7408 20.89 19.9508 18.93L20.7008 12.93C20.9708 10.49 20.2708 8.5 16.0008 8.5H8.0008C3.7308 8.5 3.0308 10.49 3.3008 12.93" stroke="#797A7C" stroke-width="1.5" stroke-miterlimit="10" stroke-linecap="round" stroke-linejoin="round"/>
<path d="M7.5 8.16952V7.19952C7.5 4.94952 9.31 2.73952 11.56 2.52952C14.24 2.26952 16.5 4.37952 16.5 7.00952V8.38952" stroke="#797A7C" stroke-width="1.5" stroke-miterlimit="10" stroke-linecap="round" stroke-linejoin="round"/>
</svg>
