<svg width="16" height="16" viewBox="0 0 16 16" fill="none" xmlns="http://www.w3.org/2000/svg">
<path fill-rule="evenodd" clip-rule="evenodd" d="M3.55012 9.17094C3.52514 9.36255 3.51227 9.55767 3.51227 9.7563C3.51227 12.2332 5.52319 14.2441 8.00005 14.2441C10.1417 14.2441 11.9352 12.7405 12.3813 10.7319H15.4146C15.7378 10.7319 16 10.4697 16 10.1465V3.12219C16 2.79868 15.7378 2.53683 15.4146 2.53683H8.39029C8.06717 2.53683 7.80493 2.79868 7.80493 3.12219V5.27243C7.64649 5.27945 7.49001 5.29428 7.33586 5.3173L5.17236 2.02054C5.06426 1.85547 4.88007 1.75635 4.683 1.75635C4.48592 1.75635 4.30173 1.85547 4.19363 2.02054L0.0960985 8.26441C-0.0221447 8.44431 -0.0319045 8.67417 0.0703388 8.86344C0.172582 9.05271 0.370437 9.17094 0.58546 9.17094H3.55012ZM8.00005 6.43925C9.83067 6.43925 11.3171 7.92529 11.3171 9.7563C11.3171 11.5869 9.83067 13.0734 8.00005 13.0734C6.16943 13.0734 4.683 11.5869 4.683 9.7563C4.683 7.92529 6.16943 6.43925 8.00005 6.43925ZM8.97565 5.37506C10.923 5.80745 12.3957 7.50617 12.4835 9.56118H14.8293V3.70756H8.97565V5.37506ZM6.16162 5.6615L4.683 3.40863L1.66994 8.00021H3.86935C4.31149 6.96217 5.13412 6.12433 6.16162 5.6615Z" fill="#202124"/>
</svg>
