<svg width="16" height="16" viewBox="0 0 16 16" fill="none" xmlns="http://www.w3.org/2000/svg">
<g clip-path="url(#clip0_840_432)">
<path d="M12.518 11.3317L14.2095 6.05141L15.8628 4.39809C16.0459 4.21503 16.0459 3.91825 15.8628 3.73518L12.2649 0.137297C12.0818 -0.0457658 11.785 -0.0457658 11.602 0.137297L9.94864 1.79058L4.66836 3.48209C4.53174 3.52587 4.42267 3.62981 4.37236 3.76418L0.0298426 15.3669C-0.0831891 15.6692 0.138218 16 0.468938 16C0.469063 16 0.469157 16 0.469282 16H14.4946C14.7535 16 14.9633 15.7901 14.9633 15.5312C14.9633 15.2724 14.7535 15.0625 14.4946 15.0625H3.05854L12.2358 11.6277C12.3703 11.5774 12.4742 11.4683 12.518 11.3317ZM11.9334 1.13168L14.8684 4.06665L13.7977 5.13737L10.8627 2.20237L11.9334 1.13168ZM2.32813 14.3348L6.5894 10.0736C7.37559 10.5575 8.41154 10.4529 9.08316 9.78129C9.87473 8.98973 9.87476 7.70857 9.08316 6.917C8.29344 6.12731 7.00853 6.12728 6.21887 6.917C5.53702 7.59888 5.44709 8.63648 5.92609 9.41123L1.66522 13.672L5.17077 4.30559L10.0705 2.73599C10.5594 3.22493 12.9584 5.62394 13.2641 5.92956L11.6945 10.8293L2.32813 14.3348ZM6.88172 7.57988C7.30587 7.15575 7.99603 7.15569 8.42024 7.57988C8.84535 8.00498 8.84541 8.69316 8.42024 9.11835C7.9961 9.54254 7.30591 9.54251 6.88172 9.11835C6.45659 8.69323 6.4565 8.0051 6.88172 7.57988Z" fill="#202124"/>
</g>
<defs>
<clipPath id="clip0_840_432">
<rect width="16" height="16" fill="white"/>
</clipPath>
</defs>
</svg>
