<svg width="17" height="16" viewBox="0 0 17 16" fill="none" xmlns="http://www.w3.org/2000/svg">
<g clip-path="url(#clip0_840_455)">
<path d="M10.6566 6.02361L11.2533 5.42674C11.4368 5.2434 11.4368 4.94594 11.2533 4.7626C11.07 4.57913 10.7725 4.57913 10.5892 4.7626L9.99182 5.35996C9.65767 5.0373 9.21955 4.85959 8.7538 4.85959C8.27728 4.85959 7.82951 5.04513 7.49279 5.38185C6.79747 6.0773 6.79747 7.20866 7.49279 7.90386L8.11205 8.52312C8.44118 8.85237 8.44118 9.38784 8.11205 9.71698C7.95268 9.87635 7.74071 9.96416 7.51518 9.96416C7.28976 9.96416 7.0778 9.87647 6.91831 9.71698L5.67968 8.47835C5.49622 8.29501 5.19888 8.29501 5.01554 8.47835C4.83208 8.66182 4.83208 8.95915 5.01554 9.14261L5.61241 9.73948L5.01554 10.3362C4.83208 10.5196 4.83208 10.8169 5.01542 11.0004C5.10715 11.0921 5.22738 11.138 5.34761 11.138C5.46772 11.138 5.58795 11.0921 5.67956 11.0005L6.27704 10.403C6.61119 10.7258 7.04942 10.9035 7.51518 10.9035C7.99145 10.9035 8.43934 10.718 8.77618 10.3812C9.11302 10.0444 9.29857 9.5965 9.29844 9.12011C9.29844 8.64371 9.11302 8.19582 8.77618 7.8591L8.15693 7.23973C7.8278 6.91071 7.8278 6.37524 8.15693 6.04611C8.3163 5.88662 8.52826 5.79892 8.75368 5.79892C8.97922 5.79892 9.19118 5.88674 9.35055 6.04611L9.65987 6.35531C9.65999 6.35543 9.66011 6.35568 9.66023 6.3558C9.66036 6.35592 9.66048 6.35604 9.6606 6.35616L10.5893 7.28474C10.7726 7.46808 11.07 7.46808 11.2534 7.28474C11.4368 7.10127 11.4368 6.80394 11.2534 6.6206L10.6566 6.02361Z" fill="#202124"/>
<path d="M12.5087 3.03711C12.3851 3.03711 12.2642 3.08713 12.1768 3.17446C12.0892 3.26191 12.0391 3.383 12.0391 3.50665C12.0391 3.63043 12.0892 3.75152 12.1768 3.83885C12.2642 3.9263 12.3851 3.97632 12.5087 3.97632C12.6324 3.97632 12.7532 3.9263 12.8409 3.83885C12.9282 3.75115 12.9784 3.63043 12.9784 3.50665C12.9784 3.383 12.9282 3.26216 12.8409 3.17446C12.7536 3.08713 12.6324 3.03711 12.5087 3.03711Z" fill="#202124"/>
<path d="M14.3695 1.64625C13.3181 0.594759 11.92 0.015625 10.4331 0.015625C8.95068 0.015625 7.55684 0.59109 6.50657 1.63622C6.50303 1.63952 6.49972 1.64283 6.4963 1.64613L0.487861 7.65481C-0.204287 8.34696 -0.204287 9.47318 0.487861 10.1652L5.85026 15.5277C6.18453 15.862 6.63035 16.0461 7.10552 16.0461C7.58069 16.0461 8.02639 15.862 8.36066 15.5277L14.3695 9.51929C15.421 8.4678 16.0001 7.06981 16.0001 5.58277C16.0001 4.09574 15.4211 2.69762 14.3695 1.64625ZM13.7053 8.85503L7.69652 14.8635C7.53972 15.0204 7.32984 15.1067 7.10552 15.1067C6.88121 15.1067 6.67132 15.0204 6.51452 14.8635L1.152 9.50107C0.826168 9.17512 0.826168 8.64491 1.152 8.31895L7.15102 2.31981C7.1542 2.31675 7.1575 2.31357 7.16068 2.31039C8.03471 1.43625 9.19689 0.95496 10.4331 0.95496C11.6691 0.95496 12.8313 1.43625 13.7053 2.31039C14.5795 3.18441 15.0608 4.34659 15.0608 5.58277C15.0608 6.81883 14.5795 7.98101 13.7053 8.85503Z" fill="#202124"/>
</g>
<defs>
<clipPath id="clip0_840_455">
<rect width="16.0313" height="16" fill="white"/>
</clipPath>
</defs>
</svg>
