<svg width="16" height="16" viewBox="0 0 16 16" fill="none" xmlns="http://www.w3.org/2000/svg">
<g clip-path="url(#clip0_840_436)">
<path d="M12.9392 4.67735L10.2977 4.29351L9.11633 1.89989C8.66005 0.975293 7.34064 0.975574 6.88451 1.89986L5.70317 4.29348L3.06164 4.67735C2.04123 4.8256 1.63392 6.08045 2.37198 6.79995L4.28342 8.66313L3.8322 11.2939C3.65792 12.3102 4.72539 13.0853 5.63779 12.6058L8.00045 11.3636L10.3631 12.6058C11.2743 13.0848 12.343 12.31 12.1687 11.2939L11.7175 8.6631L13.629 6.79992C14.3672 6.08017 13.9592 4.82557 12.9392 4.67735ZM12.8843 6.03613L10.7721 8.09501C10.6464 8.21754 10.5891 8.39407 10.6187 8.56707L11.1174 11.4743C11.1424 11.6203 10.9905 11.7305 10.8594 11.6617L8.24858 10.2891C8.09323 10.2074 7.90758 10.2074 7.75223 10.2891L5.14139 11.6617C5.01026 11.7306 4.85842 11.6203 4.88345 11.4743L5.38208 8.56707C5.41173 8.39407 5.35439 8.21754 5.2287 8.09501L3.11648 6.03613C3.01039 5.93273 3.06842 5.75423 3.21501 5.73289L6.13401 5.30873C6.3077 5.28348 6.45789 5.17442 6.53558 5.01701L7.84101 2.37192C7.90655 2.23917 8.09426 2.23907 8.15983 2.37195L9.46527 5.01701C9.54295 5.17442 9.69314 5.28351 9.86683 5.30873L12.7858 5.73289C12.9324 5.75423 12.9904 5.93276 12.8843 6.03613Z" fill="#202124"/>
<path d="M4.21008 1.47375L3.57224 0.595838C3.39905 0.357588 3.06555 0.304713 2.8273 0.4779C2.58902 0.651026 2.53617 0.984558 2.70933 1.22284L3.34717 2.10072C3.52042 2.33909 3.85392 2.39175 4.09211 2.21865C4.33039 2.04556 4.38324 1.71203 4.21008 1.47375Z" fill="#202124"/>
<path d="M2.09368 9.34085C2.00271 9.06076 1.70183 8.90733 1.42165 8.99845L0.368646 9.3406C0.0885207 9.43163 -0.0647604 9.73247 0.0262395 10.0126C0.117396 10.2932 0.418771 10.446 0.69827 10.355L1.75127 10.0129C2.03143 9.92185 2.18471 9.62098 2.09368 9.34085Z" fill="#202124"/>
<path d="M13.1722 0.477882C12.9339 0.304757 12.6004 0.357538 12.4272 0.595819L11.7894 1.47369C11.6163 1.71197 11.6691 2.04554 11.9074 2.21863C12.1458 2.39182 12.4792 2.33888 12.6523 2.10069L13.2902 1.22282C13.4633 0.984537 13.4105 0.650975 13.1722 0.477882Z" fill="#202124"/>
<path d="M15.6311 9.34063L14.5782 8.99848C14.298 8.90729 13.9972 9.06076 13.9061 9.34088C13.8151 9.62101 13.9684 9.92191 14.2485 10.0129L15.3015 10.3551C15.5811 10.446 15.8824 10.2932 15.9736 10.0127C16.0646 9.73254 15.9113 9.43166 15.6311 9.34063Z" fill="#202124"/>
<path d="M8.00011 13.4751C7.70558 13.4751 7.4668 13.7139 7.4668 14.0084V15.0908C7.4668 15.3854 7.70558 15.6242 8.00011 15.6242C8.29464 15.6242 8.53342 15.3854 8.53342 15.0908V14.0084C8.53345 13.7138 8.29467 13.4751 8.00011 13.4751Z" fill="#202124"/>
</g>
<defs>
<clipPath id="clip0_840_436">
<rect width="16" height="16" fill="white"/>
</clipPath>
</defs>
</svg>
